<svg width="1920" height="1080" xmlns="http://www.w3.org/2000/svg">
  <defs>
    <linearGradient id="hero-bg" x1="0%" y1="0%" x2="100%" y2="100%">
      <stop offset="0%" style="stop-color:#3E2723;stop-opacity:1" />
      <stop offset="50%" style="stop-color:#5C3317;stop-opacity:1" />
      <stop offset="100%" style="stop-color:#6D4C41;stop-opacity:1" />
    </linearGradient>
    <pattern id="texture" x="0" y="0" width="40" height="40" patternUnits="userSpaceOnUse">
      <circle cx="5" cy="5" r="2" fill="#8B4513" opacity="0.1"/>
      <circle cx="25" cy="25" r="2" fill="#8B4513" opacity="0.1"/>
    </pattern>
  </defs>
  <rect width="1920" height="1080" fill="url(#hero-bg)"/>
  <rect width="1920" height="1080" fill="url(#texture)"/>
  
  <!-- Decorative elements -->
  <circle cx="300" cy="200" r="150" fill="#8B4513" opacity="0.1"/>
  <circle cx="1600" cy="800" r="200" fill="#D2691E" opacity="0.1"/>
  <rect x="800" y="400" width="300" height="300" fill="#5C3317" opacity="0.05" transform="rotate(45 950 550)"/>
  <polygon points="1200,100 1300,300 1100,300" fill="#6D4C41" opacity="0.08"/>
  
  <!-- Game controller silhouette -->
  <g transform="translate(1400, 200)" opacity="0.15">
    <rect x="0" y="30" width="200" height="80" rx="40" fill="#8B4513"/>
    <circle cx="60" cy="70" r="15" fill="#D2691E"/>
    <circle cx="140" cy="50" r="10" fill="#D2691E"/>
    <circle cx="170" cy="70" r="10" fill="#D2691E"/>
  </g>
  
  <!-- Brush strokes -->
  <path d="M 100,900 Q 300,850 500,900" stroke="#8B4513" stroke-width="20" fill="none" opacity="0.1"/>
  <path d="M 1400,300 Q 1500,250 1600,300" stroke="#D2691E" stroke-width="15" fill="none" opacity="0.1"/>
</svg>
